<?xml version="1.0" encoding="UTF-8"?>
<svg id="Layer_2" data-name="Layer 2" xmlns="http://www.w3.org/2000/svg" viewBox="0 0 136.74 136.74">
  <defs>
    <style>
      .cls-1 {
        fill: #989ec0;
        stroke-width: 0px;
      }
    </style>
  </defs>
  <g id="_2_logo_main" data-name="2 logo main">
    <path id="favicon" class="cls-1" d="m68.37,0C30.61,0,0,30.61,0,68.37s30.61,68.37,68.37,68.37,68.37-30.61,68.37-68.37S106.13,0,68.37,0Zm19.68,33.08c3.67,0,6.65,4.3,6.65,9.6s-2.98,9.6-6.65,9.6-6.65-4.3-6.65-9.6,2.98-9.6,6.65-9.6Zm-39.35,0c3.67,0,6.65,4.3,6.65,9.6s-2.98,9.6-6.65,9.6-6.65-4.3-6.65-9.6,2.98-9.6,6.65-9.6Zm20.26,78.32c-23.71,0-43.12-18.72-44.24-42.16-.05-1.16.88-2.12,2.04-2.12,1.09,0,1.98.86,2.03,1.95,1.02,21.27,18.65,38.27,40.17,38.27s39.15-16.99,40.17-38.27c.05-1.09.94-1.95,2.03-1.95,1.16,0,2.09.97,2.04,2.12-1.11,23.44-20.53,42.16-44.24,42.16Z"/>
  </g>
</svg>